{"title":"Fast And Furious 6 2013 R6 DvDRiP x264 Kely258 ","uid":8676789,"size":2503767453,"categoryP":"video","categoryS":"hd___movies","magnet":"?xt=urn:btih:4acc06d8a500a92129b9484d9e9c45e86f3f648c&amp;dn=Fast+And+Furious+6+2013+R6+DvDRiP+x264+Kely258+&amp;tr=udp%3A%2F%2Ftracker.openbittorrent.com%3A80&amp;tr=udp%3A%2F%2Fopen.demonii.com%3A1337&amp;tr=udp%3A%2F%2Ftracker.coppersurfer.tk%3A6969&amp;tr=udp%3A%2F%2Fexodus.desync.com%3A6969","seeders":4,"leechers":0,"uploader":"TeX","files":-1,"time":1373616032,"description":" &lt;a href=&quot;http://www.ultraimg.com/images/fwHIB.png&quot; rel=&quot;nofollow&quot; target=&quot;_NEW&quot;&gt;http://www.ultraimg.com/images/fwHIB.png&lt;/a&gt;\n\n\nGeneral\nUnique ID                                : 168348648403719580577546155723716462494 (0x7EA6C532C2870C1E037BA147C20E879E)\nComplete name                            : C:UsersTouseefVideosFast And Furious 6 2013 R6 DvDRiP x264 Kely258And Furious 6 2013 DvDRiP x264 Kely258\nFormat                                   : Matroska\nFormat version                           : Version 2\nFile size                                : 2.33 GiB\nDuration                                 : 2h 9mn\nOverall bit rate                         : 2 569 Kbps\nWriting application                      : Lavf51.12.1\nWriting library                          : Lavf51.12.1\n\nVideo\nID                                       : 1\nFormat                                   : AVC\nFormat/Info                              : Advanced Video Codec\nFormat profile                           : &lt;a class=&quot;__cf_email__&quot; href=&quot;/cdn-cgi/l/email-protection&quot; data-cfemail=&quot;10527163757c797e75505c233e20&quot;&gt;[email&amp;#160;protected]&lt;/a&gt;&lt;script cf-hash='f9e31' type=&quot;text/javascript&quot;&gt;\n/* &lt;![CDATA[ */!function(){try{var t=&quot;currentScript&quot;in document?document.currentScript:function(){for(var t=document.getElementsByTagName(&quot;script&quot;),e=t.length;e--;)if(t[e].getAttribute(&quot;cf-hash&quot;))return t[e]}();if(t&amp;&amp;t.previousSibling){var e,r,n,i,c=t.previousSibling,a=c.getAttribute(&quot;data-cfemail&quot;);if(a){for(e=&quot;&quot;,r=parseInt(a.substr(0,2),16),n=2;a.length-n;n+=2)i=parseInt(a.substr(n,2),16)^r,e+=String.fromCharCode(i);e=document.createTextNode(e),c.parentNode.replaceChild(e,c)}}}catch(u){}}();/* ]]&gt; */&lt;/script&gt;\nFormat settings, CABAC                   : No\nFormat settings, ReFrames                : 1 frame\nFormat settings, GOP                     : M=1, N=12\nCodec ID                                 : V_MPEG4/ISO/AVC\nDuration                                 : 2h 9mn\nBit rate                                 : 2 390 Kbps\nWidth                                    : 720 pixels\nHeight                                   : 576 pixels\nDisplay aspect ratio                     : 5:4\nFrame rate mode                          : Constant\nFrame rate                               : 23.976 fps\nStandard                                 : PAL\nColor space                              : YUV\nChroma subsampling                       : 4:2:0\nBit depth                                : 8 bits\nScan type                                : Progressive\nBits/(Pixel*Frame)                       : 0.240\nStream size                              : 2.17 GiB (93%)\nDefault                                  : Yes\nForced                                   : No\n\nAudio\nID                                       : 2\nFormat                                   : MPEG Audio\nFormat version                           : Version 1\nFormat profile                           : Layer 2\nCodec ID                                 : A_MPEG/L2\nCodec ID/Hint                            : MP2\nDuration                                 : 2h 9mn\nBit rate mode                            : Constant\nBit rate                                 : 128 Kbps\nChannel(s)                               : 2 channels\nSampling rate                            : 44.1 KHz\nCompression mode                         : Lossy\nStream size                              : 119 MiB (5%)\nDefault                                  : Yes\nForced                                   : No\n\n\n\n\n\n[img]http://ultraimg.com/images/3EoJ.jpg[/img]\n[img]http://ultraimg.com/images/I1MqR.jpg[/img]\n[img]http://ultraimg.com/images/fUuNO.jpg[/img]","torrent":{"xt":"urn:btih:4acc06d8a500a92129b9484d9e9c45e86f3f648c","amp;dn":"Fast+And+Furious+6+2013+R6+DvDRiP+x264+Kely258+","amp;tr":["udp%3A%2F%2Ftracker.openbittorrent.com%3A80","udp%3A%2F%2Fopen.demonii.com%3A1337","udp%3A%2F%2Ftracker.coppersurfer.tk%3A6969","udp%3A%2F%2Fexodus.desync.com%3A6969"],"infoHash":"4acc06d8a500a92129b9484d9e9c45e86f3f648c","infoHashBuffer":{"type":"Buffer","data":[74,204,6,216,165,0,169,33,41,185,72,77,158,156,69,232,111,63,100,140]},"announce":[],"urlList":[]}}